%FSLAX23Y23*%
%MOIN*%
G70*
G01*
G75*
G04 Layer_Color=2752767*
%ADD10R,0.047X0.098*%
%ADD11R,0.030X0.035*%
%ADD12C,0.006*%
%ADD13C,0.060*%
%ADD14C,0.061*%
%ADD15C,0.165*%
%ADD16C,0.024*%
%ADD17C,0.010*%
%ADD18C,0.006*%
%ADD19R,0.055X0.106*%
%ADD20R,0.038X0.043*%
%ADD21C,0.068*%
%ADD22C,0.069*%
%ADD23C,0.173*%
%ADD24C,0.005*%
%ADD25C,0.007*%
D24*
X1927Y2878D02*
Y2918D01*
X1967D01*
Y2878D01*
X1927D01*
Y2778D02*
Y2818D01*
X1967D01*
Y2778D01*
X1927D01*
Y2678D02*
Y2718D01*
X1967D01*
Y2678D01*
X1927D01*
Y2578D02*
Y2618D01*
X1967D01*
Y2578D01*
X1927D01*
Y2478D02*
Y2518D01*
X1967D01*
Y2478D01*
X1927D01*
Y2378D02*
Y2418D01*
X1967D01*
Y2378D01*
X1927D01*
Y2278D02*
Y2318D01*
X1967D01*
Y2278D01*
X1927D01*
Y2178D02*
Y2218D01*
X1967D01*
Y2178D01*
X1927D01*
Y2078D02*
Y2118D01*
X1967D01*
Y2078D01*
X1927D01*
Y1978D02*
Y2018D01*
X1967D01*
Y1978D01*
X1927D01*
Y1878D02*
Y1918D01*
X1967D01*
Y1878D01*
X1927D01*
Y1778D02*
Y1818D01*
X1967D01*
Y1778D01*
X1927D01*
Y1678D02*
Y1718D01*
X1967D01*
Y1678D01*
X1927D01*
Y1578D02*
Y1618D01*
X1967D01*
Y1578D01*
X1927D01*
X1327Y2878D02*
Y2918D01*
X1367D01*
Y2878D01*
X1327D01*
Y1578D02*
Y1618D01*
X1367D01*
Y1578D01*
X1327D01*
Y1678D02*
Y1718D01*
X1367D01*
Y1678D01*
X1327D01*
Y1778D02*
Y1818D01*
X1367D01*
Y1778D01*
X1327D01*
Y1878D02*
Y1918D01*
X1367D01*
Y1878D01*
X1327D01*
Y1978D02*
Y2018D01*
X1367D01*
Y1978D01*
X1327D01*
Y2078D02*
Y2118D01*
X1367D01*
Y2078D01*
X1327D01*
Y2178D02*
Y2218D01*
X1367D01*
Y2178D01*
X1327D01*
Y2278D02*
Y2318D01*
X1367D01*
Y2278D01*
X1327D01*
Y2378D02*
Y2418D01*
X1367D01*
Y2378D01*
X1327D01*
Y2478D02*
Y2518D01*
X1367D01*
Y2478D01*
X1327D01*
Y2578D02*
Y2618D01*
X1367D01*
Y2578D01*
X1327D01*
Y2678D02*
Y2718D01*
X1367D01*
Y2678D01*
X1327D01*
Y2778D02*
Y2818D01*
X1367D01*
Y2778D01*
X1327D01*
X1102Y2815D02*
X1082Y2855D01*
X1122D01*
X1102Y2815D01*
X2165D02*
X2145Y2855D01*
X2185D01*
X2165Y2815D01*
X1102Y1397D02*
X1082Y1437D01*
X1122D01*
X1102Y1397D01*
X2165D02*
X2145Y1437D01*
X2185D01*
X2165Y1397D01*
X1514Y1610D02*
X1524Y1620D01*
X1534D01*
X1524Y1630D01*
X1534Y1640D01*
X1524D01*
X1514Y1650D01*
X1504Y1640D01*
X1494D01*
X1504Y1630D01*
X1494Y1620D01*
X1504D01*
X1514Y1610D01*
X1673D02*
X1683Y1620D01*
X1693D01*
X1683Y1630D01*
X1693Y1640D01*
X1683D01*
X1673Y1650D01*
X1663Y1640D01*
X1653D01*
X1663Y1630D01*
X1653Y1620D01*
X1663D01*
X1673Y1610D01*
X1514Y1576D02*
X1524Y1586D01*
X1534D01*
X1524Y1596D01*
X1534Y1606D01*
X1524D01*
X1514Y1616D01*
X1504Y1606D01*
X1494D01*
X1504Y1596D01*
X1494Y1586D01*
X1504D01*
X1514Y1576D01*
X1747Y1579D02*
X1757Y1589D01*
X1767D01*
X1757Y1599D01*
X1767Y1609D01*
X1757D01*
X1747Y1619D01*
X1737Y1609D01*
X1727D01*
X1737Y1599D01*
X1727Y1589D01*
X1737D01*
X1747Y1579D01*
D25*
X1167Y1048D02*
G03*
X1167Y1048I-20J0D01*
G01*
X1267D02*
G03*
X1267Y1048I-20J0D01*
G01*
X1367D02*
G03*
X1367Y1048I-20J0D01*
G01*
X1467D02*
G03*
X1467Y1048I-20J0D01*
G01*
X1567D02*
G03*
X1567Y1048I-20J0D01*
G01*
X1667D02*
G03*
X1667Y1048I-20J0D01*
G01*
X1767D02*
G03*
X1767Y1048I-20J0D01*
G01*
X1867D02*
G03*
X1867Y1048I-20J0D01*
G01*
X1967D02*
G03*
X1967Y1048I-20J0D01*
G01*
X2067D02*
G03*
X2067Y1048I-20J0D01*
G01*
X2167D02*
G03*
X2167Y1048I-20J0D01*
G01*
M02*
