%FSLAX23Y23*%
%MOIN*%
G70*
G01*
G75*
G04 Layer_Physical_Order=2*
G04 Layer_Color=16711680*
%ADD10R,0.047X0.098*%
%ADD11R,0.030X0.035*%
%ADD12C,0.006*%
%ADD13C,0.060*%
%ADD14C,0.061*%
%ADD15C,0.165*%
%ADD16C,0.024*%
G36*
X2945Y992D02*
X992D01*
Y2945D01*
X2945D01*
Y992D01*
D02*
G37*
%LPC*%
G36*
X1947Y1638D02*
X1936Y1637D01*
X1926Y1633D01*
X1918Y1626D01*
X1912Y1618D01*
X1908Y1608D01*
X1906Y1598D01*
X1908Y1587D01*
X1912Y1577D01*
X1918Y1569D01*
X1926Y1563D01*
X1936Y1559D01*
X1947Y1557D01*
X1957Y1559D01*
X1967Y1563D01*
X1975Y1569D01*
X1982Y1577D01*
X1986Y1587D01*
X1987Y1598D01*
X1986Y1608D01*
X1982Y1618D01*
X1975Y1626D01*
X1967Y1633D01*
X1957Y1637D01*
X1947Y1638D01*
D02*
G37*
G36*
X1673Y1652D02*
X1665Y1650D01*
X1658Y1646D01*
X1656Y1643D01*
X1532D01*
X1530Y1646D01*
X1523Y1650D01*
X1514Y1652D01*
X1506Y1650D01*
X1499Y1646D01*
X1494Y1638D01*
X1492Y1630D01*
X1494Y1621D01*
X1497Y1617D01*
X1498Y1612D01*
X1497Y1609D01*
X1493Y1604D01*
X1492Y1596D01*
X1493Y1587D01*
X1498Y1580D01*
X1505Y1575D01*
X1514Y1573D01*
X1522Y1575D01*
X1530Y1580D01*
X1534Y1586D01*
X1730D01*
X1731Y1584D01*
X1738Y1579D01*
X1747Y1577D01*
X1755Y1579D01*
X1763Y1584D01*
X1768Y1591D01*
X1769Y1599D01*
X1768Y1608D01*
X1763Y1615D01*
X1755Y1620D01*
X1747Y1622D01*
X1738Y1620D01*
X1731Y1615D01*
X1730Y1613D01*
X1694D01*
X1691Y1618D01*
X1694Y1621D01*
X1695Y1630D01*
X1694Y1638D01*
X1689Y1646D01*
X1682Y1650D01*
X1673Y1652D01*
D02*
G37*
G36*
X1347Y1738D02*
X1336Y1737D01*
X1326Y1733D01*
X1318Y1726D01*
X1312Y1718D01*
X1308Y1708D01*
X1306Y1698D01*
X1308Y1687D01*
X1312Y1677D01*
X1318Y1669D01*
X1326Y1663D01*
X1336Y1659D01*
X1347Y1657D01*
X1357Y1659D01*
X1367Y1663D01*
X1375Y1669D01*
X1382Y1677D01*
X1386Y1687D01*
X1387Y1698D01*
X1386Y1708D01*
X1382Y1718D01*
X1375Y1726D01*
X1367Y1733D01*
X1357Y1737D01*
X1347Y1738D01*
D02*
G37*
G36*
X2160Y1510D02*
X2147Y1509D01*
X2130Y1503D01*
X2114Y1495D01*
X2100Y1483D01*
X2088Y1469D01*
X2079Y1453D01*
X2074Y1435D01*
X2073Y1422D01*
X2160D01*
Y1510D01*
D02*
G37*
G36*
X2170D02*
Y1422D01*
X2258D01*
X2257Y1435D01*
X2251Y1453D01*
X2243Y1469D01*
X2231Y1483D01*
X2217Y1495D01*
X2201Y1503D01*
X2184Y1509D01*
X2170Y1510D01*
D02*
G37*
G36*
X1347Y1638D02*
X1336Y1637D01*
X1326Y1633D01*
X1318Y1626D01*
X1312Y1618D01*
X1308Y1608D01*
X1306Y1598D01*
X1308Y1587D01*
X1312Y1577D01*
X1318Y1569D01*
X1326Y1563D01*
X1336Y1559D01*
X1347Y1557D01*
X1357Y1559D01*
X1367Y1563D01*
X1375Y1569D01*
X1382Y1577D01*
X1386Y1587D01*
X1387Y1598D01*
X1386Y1608D01*
X1382Y1618D01*
X1375Y1626D01*
X1367Y1633D01*
X1357Y1637D01*
X1347Y1638D01*
D02*
G37*
G36*
X1947Y1738D02*
X1936Y1737D01*
X1926Y1733D01*
X1918Y1726D01*
X1912Y1718D01*
X1908Y1708D01*
X1906Y1698D01*
X1908Y1687D01*
X1912Y1677D01*
X1918Y1669D01*
X1926Y1663D01*
X1936Y1659D01*
X1947Y1657D01*
X1957Y1659D01*
X1967Y1663D01*
X1975Y1669D01*
X1982Y1677D01*
X1986Y1687D01*
X1987Y1698D01*
X1986Y1708D01*
X1982Y1718D01*
X1975Y1726D01*
X1967Y1733D01*
X1957Y1737D01*
X1947Y1738D01*
D02*
G37*
G36*
Y1938D02*
X1936Y1937D01*
X1926Y1933D01*
X1918Y1926D01*
X1912Y1918D01*
X1908Y1908D01*
X1906Y1898D01*
X1908Y1887D01*
X1912Y1877D01*
X1918Y1869D01*
X1926Y1863D01*
X1936Y1859D01*
X1947Y1857D01*
X1957Y1859D01*
X1967Y1863D01*
X1975Y1869D01*
X1982Y1877D01*
X1986Y1887D01*
X1987Y1898D01*
X1986Y1908D01*
X1982Y1918D01*
X1975Y1926D01*
X1967Y1933D01*
X1957Y1937D01*
X1947Y1938D01*
D02*
G37*
G36*
X1347Y2038D02*
X1336Y2037D01*
X1326Y2033D01*
X1318Y2026D01*
X1312Y2018D01*
X1308Y2008D01*
X1306Y1998D01*
X1308Y1987D01*
X1312Y1977D01*
X1318Y1969D01*
X1326Y1963D01*
X1336Y1959D01*
X1347Y1957D01*
X1357Y1959D01*
X1367Y1963D01*
X1375Y1969D01*
X1382Y1977D01*
X1386Y1987D01*
X1387Y1998D01*
X1386Y2008D01*
X1382Y2018D01*
X1375Y2026D01*
X1367Y2033D01*
X1357Y2037D01*
X1347Y2038D01*
D02*
G37*
G36*
X1947D02*
X1936Y2037D01*
X1926Y2033D01*
X1918Y2026D01*
X1912Y2018D01*
X1908Y2008D01*
X1906Y1998D01*
X1908Y1987D01*
X1912Y1977D01*
X1918Y1969D01*
X1926Y1963D01*
X1936Y1959D01*
X1947Y1957D01*
X1957Y1959D01*
X1967Y1963D01*
X1975Y1969D01*
X1982Y1977D01*
X1986Y1987D01*
X1987Y1998D01*
X1986Y2008D01*
X1982Y2018D01*
X1975Y2026D01*
X1967Y2033D01*
X1957Y2037D01*
X1947Y2038D01*
D02*
G37*
G36*
X1347Y1838D02*
X1336Y1837D01*
X1326Y1833D01*
X1318Y1826D01*
X1312Y1818D01*
X1308Y1808D01*
X1306Y1798D01*
X1308Y1787D01*
X1312Y1777D01*
X1318Y1769D01*
X1326Y1763D01*
X1336Y1759D01*
X1347Y1757D01*
X1357Y1759D01*
X1367Y1763D01*
X1375Y1769D01*
X1382Y1777D01*
X1386Y1787D01*
X1387Y1798D01*
X1386Y1808D01*
X1382Y1818D01*
X1375Y1826D01*
X1367Y1833D01*
X1357Y1837D01*
X1347Y1838D01*
D02*
G37*
G36*
X1947D02*
X1936Y1837D01*
X1926Y1833D01*
X1918Y1826D01*
X1912Y1818D01*
X1908Y1808D01*
X1906Y1798D01*
X1908Y1787D01*
X1912Y1777D01*
X1918Y1769D01*
X1926Y1763D01*
X1936Y1759D01*
X1947Y1757D01*
X1957Y1759D01*
X1967Y1763D01*
X1975Y1769D01*
X1982Y1777D01*
X1986Y1787D01*
X1987Y1798D01*
X1986Y1808D01*
X1982Y1818D01*
X1975Y1826D01*
X1967Y1833D01*
X1957Y1837D01*
X1947Y1838D01*
D02*
G37*
G36*
X1347Y1938D02*
X1336Y1937D01*
X1326Y1933D01*
X1318Y1926D01*
X1312Y1918D01*
X1308Y1908D01*
X1306Y1898D01*
X1308Y1887D01*
X1312Y1877D01*
X1318Y1869D01*
X1326Y1863D01*
X1336Y1859D01*
X1347Y1857D01*
X1357Y1859D01*
X1367Y1863D01*
X1375Y1869D01*
X1382Y1877D01*
X1386Y1887D01*
X1387Y1898D01*
X1386Y1908D01*
X1382Y1918D01*
X1375Y1926D01*
X1367Y1933D01*
X1357Y1937D01*
X1347Y1938D01*
D02*
G37*
G36*
X1107Y1510D02*
Y1422D01*
X1195D01*
X1194Y1435D01*
X1188Y1453D01*
X1180Y1469D01*
X1168Y1483D01*
X1154Y1495D01*
X1138Y1503D01*
X1121Y1509D01*
X1107Y1510D01*
D02*
G37*
G36*
X1242Y1043D02*
X1207D01*
X1207Y1038D01*
X1211Y1028D01*
X1218Y1019D01*
X1226Y1013D01*
X1236Y1009D01*
X1242Y1008D01*
Y1043D01*
D02*
G37*
G36*
X1287D02*
X1252D01*
Y1008D01*
X1257Y1009D01*
X1267Y1013D01*
X1275Y1019D01*
X1282Y1028D01*
X1286Y1038D01*
X1287Y1043D01*
D02*
G37*
G36*
X1242Y1088D02*
X1236Y1088D01*
X1226Y1083D01*
X1218Y1077D01*
X1211Y1069D01*
X1207Y1059D01*
X1207Y1053D01*
X1242D01*
Y1088D01*
D02*
G37*
G36*
X1147Y1089D02*
X1136Y1088D01*
X1126Y1083D01*
X1118Y1077D01*
X1111Y1069D01*
X1107Y1059D01*
X1106Y1048D01*
X1107Y1038D01*
X1111Y1028D01*
X1118Y1019D01*
X1126Y1013D01*
X1136Y1009D01*
X1147Y1008D01*
X1157Y1009D01*
X1167Y1013D01*
X1175Y1019D01*
X1182Y1028D01*
X1186Y1038D01*
X1187Y1048D01*
X1186Y1059D01*
X1182Y1069D01*
X1175Y1077D01*
X1167Y1083D01*
X1157Y1088D01*
X1147Y1089D01*
D02*
G37*
G36*
X2047D02*
X2036Y1088D01*
X2026Y1083D01*
X2018Y1077D01*
X2011Y1069D01*
X2007Y1059D01*
X2006Y1048D01*
X2007Y1038D01*
X2011Y1028D01*
X2018Y1019D01*
X2026Y1013D01*
X2036Y1009D01*
X2047Y1008D01*
X2057Y1009D01*
X2067Y1013D01*
X2075Y1019D01*
X2082Y1028D01*
X2086Y1038D01*
X2087Y1048D01*
X2086Y1059D01*
X2082Y1069D01*
X2075Y1077D01*
X2067Y1083D01*
X2057Y1088D01*
X2047Y1089D01*
D02*
G37*
G36*
X2147D02*
X2136Y1088D01*
X2126Y1083D01*
X2118Y1077D01*
X2111Y1069D01*
X2107Y1059D01*
X2106Y1048D01*
X2107Y1038D01*
X2111Y1028D01*
X2118Y1019D01*
X2126Y1013D01*
X2136Y1009D01*
X2147Y1008D01*
X2157Y1009D01*
X2167Y1013D01*
X2175Y1019D01*
X2182Y1028D01*
X2186Y1038D01*
X2187Y1048D01*
X2186Y1059D01*
X2182Y1069D01*
X2175Y1077D01*
X2167Y1083D01*
X2157Y1088D01*
X2147Y1089D01*
D02*
G37*
G36*
X1252Y1088D02*
Y1053D01*
X1287D01*
X1286Y1059D01*
X1282Y1069D01*
X1275Y1077D01*
X1267Y1083D01*
X1257Y1088D01*
X1252Y1088D01*
D02*
G37*
G36*
X2160Y1412D02*
X2073D01*
X2074Y1399D01*
X2079Y1382D01*
X2088Y1366D01*
X2100Y1351D01*
X2114Y1340D01*
X2130Y1331D01*
X2147Y1326D01*
X2160Y1325D01*
Y1412D01*
D02*
G37*
G36*
X2258D02*
X2170D01*
Y1325D01*
X2184Y1326D01*
X2201Y1331D01*
X2217Y1340D01*
X2231Y1351D01*
X2243Y1366D01*
X2251Y1382D01*
X2257Y1399D01*
X2258Y1412D01*
D02*
G37*
G36*
X1097Y1510D02*
X1084Y1509D01*
X1067Y1503D01*
X1051Y1495D01*
X1037Y1483D01*
X1025Y1469D01*
X1016Y1453D01*
X1011Y1435D01*
X1010Y1422D01*
X1097D01*
Y1510D01*
D02*
G37*
G36*
X1903Y1105D02*
X1390D01*
X1385Y1104D01*
X1381Y1101D01*
X1364Y1085D01*
X1357Y1088D01*
X1347Y1089D01*
X1336Y1088D01*
X1326Y1083D01*
X1318Y1077D01*
X1311Y1069D01*
X1307Y1059D01*
X1306Y1048D01*
X1307Y1038D01*
X1311Y1028D01*
X1318Y1019D01*
X1326Y1013D01*
X1336Y1009D01*
X1347Y1008D01*
X1357Y1009D01*
X1367Y1013D01*
X1375Y1019D01*
X1382Y1028D01*
X1386Y1038D01*
X1387Y1048D01*
X1386Y1059D01*
X1383Y1066D01*
X1395Y1078D01*
X1413D01*
X1415Y1073D01*
X1411Y1069D01*
X1407Y1059D01*
X1406Y1048D01*
X1407Y1038D01*
X1411Y1028D01*
X1418Y1019D01*
X1426Y1013D01*
X1436Y1009D01*
X1447Y1008D01*
X1457Y1009D01*
X1467Y1013D01*
X1475Y1019D01*
X1482Y1028D01*
X1486Y1038D01*
X1487Y1048D01*
X1486Y1059D01*
X1482Y1069D01*
X1478Y1073D01*
X1481Y1078D01*
X1513D01*
X1515Y1073D01*
X1511Y1069D01*
X1507Y1059D01*
X1506Y1048D01*
X1507Y1038D01*
X1511Y1028D01*
X1518Y1019D01*
X1526Y1013D01*
X1536Y1009D01*
X1547Y1008D01*
X1557Y1009D01*
X1567Y1013D01*
X1575Y1019D01*
X1582Y1028D01*
X1586Y1038D01*
X1587Y1048D01*
X1586Y1059D01*
X1582Y1069D01*
X1578Y1073D01*
X1581Y1078D01*
X1613D01*
X1615Y1073D01*
X1611Y1069D01*
X1607Y1059D01*
X1606Y1048D01*
X1607Y1038D01*
X1611Y1028D01*
X1618Y1019D01*
X1626Y1013D01*
X1636Y1009D01*
X1647Y1008D01*
X1657Y1009D01*
X1667Y1013D01*
X1675Y1019D01*
X1682Y1028D01*
X1686Y1038D01*
X1687Y1048D01*
X1686Y1059D01*
X1682Y1069D01*
X1678Y1073D01*
X1681Y1078D01*
X1713D01*
X1715Y1073D01*
X1711Y1069D01*
X1707Y1059D01*
X1706Y1048D01*
X1707Y1038D01*
X1711Y1028D01*
X1718Y1019D01*
X1726Y1013D01*
X1736Y1009D01*
X1747Y1008D01*
X1757Y1009D01*
X1767Y1013D01*
X1775Y1019D01*
X1782Y1028D01*
X1786Y1038D01*
X1787Y1048D01*
X1786Y1059D01*
X1782Y1069D01*
X1778Y1073D01*
X1781Y1078D01*
X1813D01*
X1815Y1073D01*
X1811Y1069D01*
X1807Y1059D01*
X1806Y1048D01*
X1807Y1038D01*
X1811Y1028D01*
X1818Y1019D01*
X1826Y1013D01*
X1836Y1009D01*
X1847Y1008D01*
X1857Y1009D01*
X1867Y1013D01*
X1875Y1019D01*
X1882Y1028D01*
X1886Y1038D01*
X1887Y1048D01*
X1886Y1059D01*
X1882Y1069D01*
X1878Y1073D01*
X1881Y1078D01*
X1898D01*
X1910Y1066D01*
X1907Y1059D01*
X1906Y1048D01*
X1907Y1038D01*
X1911Y1028D01*
X1918Y1019D01*
X1926Y1013D01*
X1936Y1009D01*
X1947Y1008D01*
X1957Y1009D01*
X1967Y1013D01*
X1975Y1019D01*
X1982Y1028D01*
X1986Y1038D01*
X1987Y1048D01*
X1986Y1059D01*
X1982Y1069D01*
X1975Y1077D01*
X1967Y1083D01*
X1957Y1088D01*
X1947Y1089D01*
X1936Y1088D01*
X1929Y1085D01*
X1913Y1101D01*
X1908Y1104D01*
X1903Y1105D01*
D02*
G37*
G36*
X1097Y1412D02*
X1010D01*
X1011Y1399D01*
X1016Y1382D01*
X1025Y1366D01*
X1037Y1351D01*
X1051Y1340D01*
X1067Y1331D01*
X1084Y1326D01*
X1097Y1325D01*
Y1412D01*
D02*
G37*
G36*
X1195D02*
X1107D01*
Y1325D01*
X1121Y1326D01*
X1138Y1331D01*
X1154Y1340D01*
X1168Y1351D01*
X1180Y1366D01*
X1188Y1382D01*
X1194Y1399D01*
X1195Y1412D01*
D02*
G37*
G36*
X1347Y2138D02*
X1336Y2137D01*
X1326Y2133D01*
X1318Y2126D01*
X1312Y2118D01*
X1308Y2108D01*
X1306Y2098D01*
X1308Y2087D01*
X1312Y2077D01*
X1318Y2069D01*
X1326Y2063D01*
X1336Y2059D01*
X1347Y2057D01*
X1357Y2059D01*
X1367Y2063D01*
X1375Y2069D01*
X1382Y2077D01*
X1386Y2087D01*
X1387Y2098D01*
X1386Y2108D01*
X1382Y2118D01*
X1375Y2126D01*
X1367Y2133D01*
X1357Y2137D01*
X1347Y2138D01*
D02*
G37*
G36*
X1947Y2838D02*
X1936Y2837D01*
X1926Y2833D01*
X1918Y2826D01*
X1912Y2818D01*
X1908Y2808D01*
X1906Y2798D01*
X1908Y2787D01*
X1912Y2777D01*
X1918Y2769D01*
X1926Y2763D01*
X1936Y2759D01*
X1947Y2757D01*
X1957Y2759D01*
X1967Y2763D01*
X1975Y2769D01*
X1982Y2777D01*
X1986Y2787D01*
X1987Y2798D01*
X1986Y2808D01*
X1982Y2818D01*
X1975Y2826D01*
X1967Y2833D01*
X1957Y2837D01*
X1947Y2838D01*
D02*
G37*
G36*
X1097Y2927D02*
X1084Y2926D01*
X1067Y2921D01*
X1051Y2912D01*
X1037Y2900D01*
X1025Y2886D01*
X1016Y2870D01*
X1011Y2853D01*
X1010Y2840D01*
X1097D01*
Y2927D01*
D02*
G37*
G36*
X1107D02*
Y2840D01*
X1195D01*
X1194Y2853D01*
X1188Y2870D01*
X1180Y2886D01*
X1168Y2900D01*
X1154Y2912D01*
X1138Y2921D01*
X1121Y2926D01*
X1107Y2927D01*
D02*
G37*
G36*
X1347Y2838D02*
X1336Y2837D01*
X1326Y2833D01*
X1318Y2826D01*
X1312Y2818D01*
X1308Y2808D01*
X1306Y2798D01*
X1308Y2787D01*
X1312Y2777D01*
X1318Y2769D01*
X1326Y2763D01*
X1336Y2759D01*
X1347Y2757D01*
X1357Y2759D01*
X1367Y2763D01*
X1375Y2769D01*
X1382Y2777D01*
X1386Y2787D01*
X1387Y2798D01*
X1386Y2808D01*
X1382Y2818D01*
X1375Y2826D01*
X1367Y2833D01*
X1357Y2837D01*
X1347Y2838D01*
D02*
G37*
G36*
X1195Y2830D02*
X1107D01*
Y2742D01*
X1121Y2743D01*
X1138Y2749D01*
X1154Y2757D01*
X1168Y2769D01*
X1180Y2783D01*
X1188Y2799D01*
X1194Y2816D01*
X1195Y2830D01*
D02*
G37*
G36*
X2160D02*
X2073D01*
X2074Y2816D01*
X2079Y2799D01*
X2088Y2783D01*
X2100Y2769D01*
X2114Y2757D01*
X2130Y2749D01*
X2147Y2743D01*
X2160Y2742D01*
Y2830D01*
D02*
G37*
G36*
X2258D02*
X2170D01*
Y2742D01*
X2184Y2743D01*
X2201Y2749D01*
X2217Y2757D01*
X2231Y2769D01*
X2243Y2783D01*
X2251Y2799D01*
X2257Y2816D01*
X2258Y2830D01*
D02*
G37*
G36*
X1386Y2893D02*
X1352D01*
Y2858D01*
X1357Y2859D01*
X1367Y2863D01*
X1375Y2869D01*
X1382Y2877D01*
X1386Y2887D01*
X1386Y2893D01*
D02*
G37*
G36*
X1342Y2937D02*
X1336Y2937D01*
X1326Y2933D01*
X1318Y2926D01*
X1312Y2918D01*
X1308Y2908D01*
X1307Y2903D01*
X1342D01*
Y2937D01*
D02*
G37*
G36*
X1352D02*
Y2903D01*
X1386D01*
X1386Y2908D01*
X1382Y2918D01*
X1375Y2926D01*
X1367Y2933D01*
X1357Y2937D01*
X1352Y2937D01*
D02*
G37*
G36*
X1342Y2893D02*
X1307D01*
X1308Y2887D01*
X1312Y2877D01*
X1318Y2869D01*
X1326Y2863D01*
X1336Y2859D01*
X1342Y2858D01*
Y2893D01*
D02*
G37*
G36*
X2160Y2927D02*
X2147Y2926D01*
X2130Y2921D01*
X2114Y2912D01*
X2100Y2900D01*
X2088Y2886D01*
X2079Y2870D01*
X2074Y2853D01*
X2073Y2840D01*
X2160D01*
Y2927D01*
D02*
G37*
G36*
X2170D02*
Y2840D01*
X2258D01*
X2257Y2853D01*
X2251Y2870D01*
X2243Y2886D01*
X2231Y2900D01*
X2217Y2912D01*
X2201Y2921D01*
X2184Y2926D01*
X2170Y2927D01*
D02*
G37*
G36*
X1947Y2938D02*
X1936Y2937D01*
X1926Y2933D01*
X1918Y2926D01*
X1912Y2918D01*
X1908Y2908D01*
X1906Y2898D01*
X1908Y2887D01*
X1912Y2877D01*
X1918Y2869D01*
X1926Y2863D01*
X1936Y2859D01*
X1947Y2857D01*
X1957Y2859D01*
X1967Y2863D01*
X1975Y2869D01*
X1982Y2877D01*
X1986Y2887D01*
X1987Y2898D01*
X1986Y2908D01*
X1982Y2918D01*
X1975Y2926D01*
X1967Y2933D01*
X1957Y2937D01*
X1947Y2938D01*
D02*
G37*
G36*
Y2338D02*
X1936Y2337D01*
X1926Y2333D01*
X1918Y2326D01*
X1912Y2318D01*
X1908Y2308D01*
X1906Y2298D01*
X1908Y2287D01*
X1912Y2277D01*
X1918Y2269D01*
X1926Y2263D01*
X1936Y2259D01*
X1947Y2257D01*
X1957Y2259D01*
X1967Y2263D01*
X1975Y2269D01*
X1982Y2277D01*
X1986Y2287D01*
X1987Y2298D01*
X1986Y2308D01*
X1982Y2318D01*
X1975Y2326D01*
X1967Y2333D01*
X1957Y2337D01*
X1947Y2338D01*
D02*
G37*
G36*
X1347Y2438D02*
X1336Y2437D01*
X1326Y2433D01*
X1318Y2426D01*
X1312Y2418D01*
X1308Y2408D01*
X1306Y2398D01*
X1308Y2387D01*
X1312Y2377D01*
X1318Y2369D01*
X1326Y2363D01*
X1336Y2359D01*
X1347Y2357D01*
X1357Y2359D01*
X1367Y2363D01*
X1375Y2369D01*
X1382Y2377D01*
X1386Y2387D01*
X1387Y2398D01*
X1386Y2408D01*
X1382Y2418D01*
X1375Y2426D01*
X1367Y2433D01*
X1357Y2437D01*
X1347Y2438D01*
D02*
G37*
G36*
X1947D02*
X1936Y2437D01*
X1926Y2433D01*
X1918Y2426D01*
X1912Y2418D01*
X1908Y2408D01*
X1906Y2398D01*
X1908Y2387D01*
X1912Y2377D01*
X1918Y2369D01*
X1926Y2363D01*
X1936Y2359D01*
X1947Y2357D01*
X1957Y2359D01*
X1967Y2363D01*
X1975Y2369D01*
X1982Y2377D01*
X1986Y2387D01*
X1987Y2398D01*
X1986Y2408D01*
X1982Y2418D01*
X1975Y2426D01*
X1967Y2433D01*
X1957Y2437D01*
X1947Y2438D01*
D02*
G37*
G36*
X1347Y2338D02*
X1336Y2337D01*
X1326Y2333D01*
X1318Y2326D01*
X1312Y2318D01*
X1308Y2308D01*
X1306Y2298D01*
X1308Y2287D01*
X1312Y2277D01*
X1318Y2269D01*
X1326Y2263D01*
X1336Y2259D01*
X1347Y2257D01*
X1357Y2259D01*
X1367Y2263D01*
X1375Y2269D01*
X1382Y2277D01*
X1386Y2287D01*
X1387Y2298D01*
X1386Y2308D01*
X1382Y2318D01*
X1375Y2326D01*
X1367Y2333D01*
X1357Y2337D01*
X1347Y2338D01*
D02*
G37*
G36*
X1947Y2138D02*
X1936Y2137D01*
X1926Y2133D01*
X1918Y2126D01*
X1912Y2118D01*
X1908Y2108D01*
X1906Y2098D01*
X1908Y2087D01*
X1912Y2077D01*
X1918Y2069D01*
X1926Y2063D01*
X1936Y2059D01*
X1947Y2057D01*
X1957Y2059D01*
X1967Y2063D01*
X1975Y2069D01*
X1982Y2077D01*
X1986Y2087D01*
X1987Y2098D01*
X1986Y2108D01*
X1982Y2118D01*
X1975Y2126D01*
X1967Y2133D01*
X1957Y2137D01*
X1947Y2138D01*
D02*
G37*
G36*
X1347Y2238D02*
X1336Y2237D01*
X1326Y2233D01*
X1318Y2226D01*
X1312Y2218D01*
X1308Y2208D01*
X1306Y2198D01*
X1308Y2187D01*
X1312Y2177D01*
X1318Y2169D01*
X1326Y2163D01*
X1336Y2159D01*
X1347Y2157D01*
X1357Y2159D01*
X1367Y2163D01*
X1375Y2169D01*
X1382Y2177D01*
X1386Y2187D01*
X1387Y2198D01*
X1386Y2208D01*
X1382Y2218D01*
X1375Y2226D01*
X1367Y2233D01*
X1357Y2237D01*
X1347Y2238D01*
D02*
G37*
G36*
X1947D02*
X1936Y2237D01*
X1926Y2233D01*
X1918Y2226D01*
X1912Y2218D01*
X1908Y2208D01*
X1906Y2198D01*
X1908Y2187D01*
X1912Y2177D01*
X1918Y2169D01*
X1926Y2163D01*
X1936Y2159D01*
X1947Y2157D01*
X1957Y2159D01*
X1967Y2163D01*
X1975Y2169D01*
X1982Y2177D01*
X1986Y2187D01*
X1987Y2198D01*
X1986Y2208D01*
X1982Y2218D01*
X1975Y2226D01*
X1967Y2233D01*
X1957Y2237D01*
X1947Y2238D01*
D02*
G37*
G36*
X1347Y2738D02*
X1336Y2737D01*
X1326Y2733D01*
X1318Y2726D01*
X1312Y2718D01*
X1308Y2708D01*
X1306Y2698D01*
X1308Y2687D01*
X1312Y2677D01*
X1318Y2669D01*
X1326Y2663D01*
X1336Y2659D01*
X1347Y2657D01*
X1357Y2659D01*
X1367Y2663D01*
X1375Y2669D01*
X1382Y2677D01*
X1386Y2687D01*
X1387Y2698D01*
X1386Y2708D01*
X1382Y2718D01*
X1375Y2726D01*
X1367Y2733D01*
X1357Y2737D01*
X1347Y2738D01*
D02*
G37*
G36*
X1947D02*
X1936Y2737D01*
X1926Y2733D01*
X1918Y2726D01*
X1912Y2718D01*
X1908Y2708D01*
X1906Y2698D01*
X1908Y2687D01*
X1912Y2677D01*
X1918Y2669D01*
X1926Y2663D01*
X1936Y2659D01*
X1947Y2657D01*
X1957Y2659D01*
X1967Y2663D01*
X1975Y2669D01*
X1982Y2677D01*
X1986Y2687D01*
X1987Y2698D01*
X1986Y2708D01*
X1982Y2718D01*
X1975Y2726D01*
X1967Y2733D01*
X1957Y2737D01*
X1947Y2738D01*
D02*
G37*
G36*
X1097Y2830D02*
X1010D01*
X1011Y2816D01*
X1016Y2799D01*
X1025Y2783D01*
X1037Y2769D01*
X1051Y2757D01*
X1067Y2749D01*
X1084Y2743D01*
X1097Y2742D01*
Y2830D01*
D02*
G37*
G36*
X1947Y2638D02*
X1936Y2637D01*
X1926Y2633D01*
X1918Y2626D01*
X1912Y2618D01*
X1908Y2608D01*
X1906Y2598D01*
X1908Y2587D01*
X1912Y2577D01*
X1918Y2569D01*
X1926Y2563D01*
X1936Y2559D01*
X1947Y2557D01*
X1957Y2559D01*
X1967Y2563D01*
X1975Y2569D01*
X1982Y2577D01*
X1986Y2587D01*
X1987Y2598D01*
X1986Y2608D01*
X1982Y2618D01*
X1975Y2626D01*
X1967Y2633D01*
X1957Y2637D01*
X1947Y2638D01*
D02*
G37*
G36*
X1347Y2538D02*
X1336Y2537D01*
X1326Y2533D01*
X1318Y2526D01*
X1312Y2518D01*
X1308Y2508D01*
X1306Y2498D01*
X1308Y2487D01*
X1312Y2477D01*
X1318Y2469D01*
X1326Y2463D01*
X1336Y2459D01*
X1347Y2457D01*
X1357Y2459D01*
X1367Y2463D01*
X1375Y2469D01*
X1382Y2477D01*
X1386Y2487D01*
X1387Y2498D01*
X1386Y2508D01*
X1382Y2518D01*
X1375Y2526D01*
X1367Y2533D01*
X1357Y2537D01*
X1347Y2538D01*
D02*
G37*
G36*
X1947D02*
X1936Y2537D01*
X1926Y2533D01*
X1918Y2526D01*
X1912Y2518D01*
X1908Y2508D01*
X1906Y2498D01*
X1908Y2487D01*
X1912Y2477D01*
X1918Y2469D01*
X1926Y2463D01*
X1936Y2459D01*
X1947Y2457D01*
X1957Y2459D01*
X1967Y2463D01*
X1975Y2469D01*
X1982Y2477D01*
X1986Y2487D01*
X1987Y2498D01*
X1986Y2508D01*
X1982Y2518D01*
X1975Y2526D01*
X1967Y2533D01*
X1957Y2537D01*
X1947Y2538D01*
D02*
G37*
G36*
X1347Y2638D02*
X1336Y2637D01*
X1326Y2633D01*
X1318Y2626D01*
X1312Y2618D01*
X1308Y2608D01*
X1306Y2598D01*
X1308Y2587D01*
X1312Y2577D01*
X1318Y2569D01*
X1326Y2563D01*
X1336Y2559D01*
X1347Y2557D01*
X1357Y2559D01*
X1367Y2563D01*
X1375Y2569D01*
X1382Y2577D01*
X1386Y2587D01*
X1387Y2598D01*
X1386Y2608D01*
X1382Y2618D01*
X1375Y2626D01*
X1367Y2633D01*
X1357Y2637D01*
X1347Y2638D01*
D02*
G37*
%LPD*%
D12*
X1514Y1630D02*
X1673D01*
X1514Y1596D02*
Y1599D01*
X1747D01*
X1347Y1048D02*
X1390Y1092D01*
X1903D01*
X1947Y1048D01*
D13*
X1947Y2898D02*
D03*
Y2798D02*
D03*
Y2698D02*
D03*
Y2598D02*
D03*
Y2498D02*
D03*
Y2398D02*
D03*
Y2298D02*
D03*
Y2198D02*
D03*
Y2098D02*
D03*
Y1998D02*
D03*
Y1898D02*
D03*
Y1798D02*
D03*
Y1698D02*
D03*
Y1598D02*
D03*
X1347Y2898D02*
D03*
Y1598D02*
D03*
Y1698D02*
D03*
Y1798D02*
D03*
Y1898D02*
D03*
Y1998D02*
D03*
Y2098D02*
D03*
Y2198D02*
D03*
Y2298D02*
D03*
Y2398D02*
D03*
Y2498D02*
D03*
Y2598D02*
D03*
Y2698D02*
D03*
Y2798D02*
D03*
D14*
X1147Y1048D02*
D03*
X1247D02*
D03*
X1347D02*
D03*
X1447D02*
D03*
X1547D02*
D03*
X1647D02*
D03*
X1747D02*
D03*
X1847D02*
D03*
X1947D02*
D03*
X2047D02*
D03*
X2147D02*
D03*
D15*
X1102Y2835D02*
D03*
X2165D02*
D03*
X1102Y1417D02*
D03*
X2165D02*
D03*
D16*
X1514Y1630D02*
D03*
X1673D02*
D03*
X1514Y1596D02*
D03*
X1747Y1599D02*
D03*
M02*
