M48
;Layer_Color=9474304
;FILE_FORMAT=2:3
INCH,LZ
;TYPE=PLATED
T1F00S00C0.012
T2F00S00C0.040
T3F00S00C0.043
T4F00S00C0.126
%
T01
X01673Y0163
X01747Y01599
X01514Y01596
X01514Y0163
T02
X01947Y01598
Y01698
Y01798
Y01898
Y01998
Y02098
Y02198
Y02298
Y02398
Y02498
Y02598
Y02698
Y02798
Y02898
X01347
Y02798
Y02698
Y02598
Y02498
Y02398
Y02298
Y02198
Y02098
Y01998
Y01898
Y01798
Y01698
Y01598
T03
X01147Y01048
X01247
X01347
X01447
X01547
X01647
X01747
X01847
X01947
X02047
X02147
T04
X01102Y01417
X02165
Y02835
X01102
M30
