%FSLAX23Y23*%
%MOIN*%
G70*
G01*
G75*
%ADD10R,0.047X0.098*%
%ADD11R,0.030X0.035*%
%ADD12C,0.006*%
%ADD13C,0.060*%
%ADD14C,0.061*%
%ADD15C,0.165*%
%ADD16C,0.024*%
%ADD17C,0.010*%
%ADD18C,0.006*%
%ADD19R,0.055X0.106*%
%ADD20R,0.038X0.043*%
%ADD21C,0.068*%
%ADD22C,0.069*%
%ADD23C,0.173*%
%ADD24C,0.005*%
%ADD25C,0.007*%
D24*
X1927Y2898D02*
X1967D01*
X1947Y2878D02*
Y2918D01*
X1927Y2798D02*
X1967D01*
X1947Y2778D02*
Y2818D01*
X1927Y2698D02*
X1967D01*
X1947Y2678D02*
Y2718D01*
X1927Y2598D02*
X1967D01*
X1947Y2578D02*
Y2618D01*
X1927Y2498D02*
X1967D01*
X1947Y2478D02*
Y2518D01*
X1927Y2398D02*
X1967D01*
X1947Y2378D02*
Y2418D01*
X1927Y2298D02*
X1967D01*
X1947Y2278D02*
Y2318D01*
X1927Y2198D02*
X1967D01*
X1947Y2178D02*
Y2218D01*
X1927Y2098D02*
X1967D01*
X1947Y2078D02*
Y2118D01*
X1927Y1998D02*
X1967D01*
X1947Y1978D02*
Y2018D01*
X1927Y1898D02*
X1967D01*
X1947Y1878D02*
Y1918D01*
X1927Y1798D02*
X1967D01*
X1947Y1778D02*
Y1818D01*
X1927Y1698D02*
X1967D01*
X1947Y1678D02*
Y1718D01*
X1927Y1598D02*
X1967D01*
X1947Y1578D02*
Y1618D01*
X1327Y2898D02*
X1367D01*
X1347Y2878D02*
Y2918D01*
X1327Y1598D02*
X1367D01*
X1347Y1578D02*
Y1618D01*
X1327Y1698D02*
X1367D01*
X1347Y1678D02*
Y1718D01*
X1327Y1798D02*
X1367D01*
X1347Y1778D02*
Y1818D01*
X1327Y1898D02*
X1367D01*
X1347Y1878D02*
Y1918D01*
X1327Y1998D02*
X1367D01*
X1347Y1978D02*
Y2018D01*
X1327Y2098D02*
X1367D01*
X1347Y2078D02*
Y2118D01*
X1327Y2198D02*
X1367D01*
X1347Y2178D02*
Y2218D01*
X1327Y2298D02*
X1367D01*
X1347Y2278D02*
Y2318D01*
X1327Y2398D02*
X1367D01*
X1347Y2378D02*
Y2418D01*
X1327Y2498D02*
X1367D01*
X1347Y2478D02*
Y2518D01*
X1327Y2598D02*
X1367D01*
X1347Y2578D02*
Y2618D01*
X1327Y2698D02*
X1367D01*
X1347Y2678D02*
Y2718D01*
X1327Y2798D02*
X1367D01*
X1347Y2778D02*
Y2818D01*
X1125Y1048D02*
X1168D01*
X1147Y1027D02*
Y1070D01*
X1225Y1048D02*
X1268D01*
X1247Y1027D02*
Y1070D01*
X1325Y1048D02*
X1368D01*
X1347Y1027D02*
Y1070D01*
X1425Y1048D02*
X1468D01*
X1447Y1027D02*
Y1070D01*
X1525Y1048D02*
X1568D01*
X1547Y1027D02*
Y1070D01*
X1625Y1048D02*
X1668D01*
X1647Y1027D02*
Y1070D01*
X1725Y1048D02*
X1768D01*
X1747Y1027D02*
Y1070D01*
X1825Y1048D02*
X1868D01*
X1847Y1027D02*
Y1070D01*
X1925Y1048D02*
X1968D01*
X1947Y1027D02*
Y1070D01*
X2025Y1048D02*
X2068D01*
X2047Y1027D02*
Y1070D01*
X2125Y1048D02*
X2168D01*
X2147Y1027D02*
Y1070D01*
X1039Y2835D02*
X1165D01*
X1102Y2772D02*
Y2898D01*
X2102Y2835D02*
X2228D01*
X2165Y2772D02*
Y2898D01*
X1039Y1417D02*
X1165D01*
X1102Y1354D02*
Y1480D01*
X2102Y1417D02*
X2228D01*
X2165Y1354D02*
Y1480D01*
X1508Y1630D02*
X1520D01*
X1514Y1624D02*
Y1636D01*
X1667Y1630D02*
X1679D01*
X1673Y1624D02*
Y1636D01*
X1508Y1596D02*
X1520D01*
X1514Y1590D02*
Y1601D01*
X1741Y1599D02*
X1753D01*
X1747Y1594D02*
Y1605D01*
M02*
