%FSLAX23Y23*%
%MOIN*%
G70*
G01*
G75*
G04 Layer_Color=32896*
%ADD10R,0.047X0.098*%
%ADD11R,0.030X0.035*%
%ADD12C,0.006*%
%ADD13C,0.060*%
%ADD14C,0.061*%
%ADD15C,0.165*%
%ADD16C,0.024*%
%ADD17C,0.010*%
%ADD18C,0.006*%
%ADD19R,0.055X0.106*%
%ADD20R,0.038X0.043*%
%ADD21C,0.068*%
%ADD22C,0.069*%
%ADD23C,0.173*%
D18*
X1021Y1657D02*
Y1677D01*
X1027Y1683D01*
X1034Y1677D01*
Y1663D01*
X1040Y1657D01*
X1047Y1663D01*
Y1683D01*
X1053Y1703D02*
X1047D01*
Y1696D01*
Y1709D01*
Y1703D01*
X1027D01*
X1021Y1709D01*
X1047Y1736D02*
Y1749D01*
X1040Y1755D01*
X1021D01*
Y1736D01*
X1027Y1729D01*
X1034Y1736D01*
Y1755D01*
X1008Y1782D02*
Y1788D01*
X1014Y1795D01*
X1047D01*
Y1775D01*
X1040Y1768D01*
X1027D01*
X1021Y1775D01*
Y1795D01*
Y1808D02*
X1047D01*
Y1827D01*
X1040Y1834D01*
X1021D01*
X1047Y1854D02*
Y1867D01*
X1040Y1873D01*
X1021D01*
Y1854D01*
X1027Y1847D01*
X1034Y1854D01*
Y1873D01*
X1053Y1893D02*
X1047D01*
Y1887D01*
Y1900D01*
Y1893D01*
X1027D01*
X1021Y1900D01*
Y1919D02*
Y1932D01*
Y1926D01*
X1047D01*
Y1919D01*
X1021Y1959D02*
Y1972D01*
X1027Y1978D01*
X1040D01*
X1047Y1972D01*
Y1959D01*
X1040Y1952D01*
X1027D01*
X1021Y1959D01*
Y1991D02*
X1047D01*
Y2011D01*
X1040Y2018D01*
X1021D01*
Y2031D02*
Y2044D01*
Y2037D01*
X1060D01*
Y2031D01*
X1047Y2070D02*
Y2083D01*
X1040Y2090D01*
X1021D01*
Y2070D01*
X1027Y2064D01*
X1034Y2070D01*
Y2090D01*
X1060Y2103D02*
X1021D01*
Y2123D01*
X1027Y2129D01*
X1034D01*
X1040D01*
X1047Y2123D01*
Y2103D01*
X1021Y2142D02*
X1027D01*
Y2149D01*
X1021D01*
Y2142D01*
X1047Y2201D02*
Y2182D01*
X1040Y2175D01*
X1027D01*
X1021Y2182D01*
Y2201D01*
Y2221D02*
Y2234D01*
X1027Y2241D01*
X1040D01*
X1047Y2234D01*
Y2221D01*
X1040Y2214D01*
X1027D01*
X1021Y2221D01*
Y2254D02*
X1047D01*
Y2260D01*
X1040Y2267D01*
X1021D01*
X1040D01*
X1047Y2274D01*
X1040Y2280D01*
X1021D01*
X2913Y2720D02*
X2874D01*
Y2700D01*
X2881Y2693D01*
X2894D01*
X2900Y2700D01*
Y2720D01*
X2887Y2680D02*
X2913D01*
X2900D01*
X2894Y2674D01*
X2887Y2667D01*
Y2661D01*
X2913Y2641D02*
Y2628D01*
Y2634D01*
X2887D01*
Y2641D01*
X2913Y2608D02*
Y2595D01*
Y2602D01*
X2887D01*
Y2608D01*
X2881Y2569D02*
X2887D01*
Y2575D01*
Y2562D01*
Y2569D01*
X2907D01*
X2913Y2562D01*
X2874Y2503D02*
X2913D01*
X2900D01*
X2874Y2477D01*
X2894Y2497D01*
X2913Y2477D01*
X2887Y2457D02*
Y2444D01*
X2894Y2438D01*
X2913D01*
Y2457D01*
X2907Y2464D01*
X2900Y2457D01*
Y2438D01*
X2913Y2424D02*
Y2411D01*
Y2418D01*
X2874D01*
Y2424D01*
X2913Y2392D02*
Y2378D01*
Y2385D01*
X2874D01*
Y2392D01*
X2887Y2352D02*
Y2339D01*
X2894Y2333D01*
X2913D01*
Y2352D01*
X2907Y2359D01*
X2900Y2352D01*
Y2333D01*
X2913Y2319D02*
Y2300D01*
X2907Y2293D01*
X2900Y2300D01*
Y2313D01*
X2894Y2319D01*
X2887Y2313D01*
Y2293D01*
X2913Y2221D02*
X2894Y2241D01*
X2874Y2221D01*
X2913Y2201D02*
X2874D01*
X2900D02*
X2887Y2182D01*
X2900Y2201D02*
X2913Y2182D01*
X2887Y2155D02*
Y2142D01*
X2894Y2136D01*
X2913D01*
Y2155D01*
X2907Y2162D01*
X2900Y2155D01*
Y2136D01*
X2913Y2123D02*
Y2110D01*
Y2116D01*
X2874D01*
Y2123D01*
X2913Y2090D02*
Y2077D01*
Y2083D01*
X2874D01*
Y2090D01*
X2887Y2050D02*
Y2037D01*
X2894Y2031D01*
X2913D01*
Y2050D01*
X2907Y2057D01*
X2900Y2050D01*
Y2031D01*
X2913Y2018D02*
Y1998D01*
X2907Y1991D01*
X2900Y1998D01*
Y2011D01*
X2894Y2018D01*
X2887Y2011D01*
Y1991D01*
X2927Y1978D02*
X2887D01*
Y1959D01*
X2894Y1952D01*
X2907D01*
X2913Y1959D01*
Y1978D01*
X2887Y1939D02*
X2913D01*
X2900D01*
X2894Y1932D01*
X2887Y1926D01*
Y1919D01*
X2913Y1900D02*
Y1887D01*
Y1893D01*
X2887D01*
Y1900D01*
X2913Y1867D02*
Y1854D01*
Y1860D01*
X2887D01*
Y1867D01*
X2881Y1827D02*
X2887D01*
Y1834D01*
Y1821D01*
Y1827D01*
X2907D01*
X2913Y1821D01*
X2900Y1782D02*
X2894D01*
Y1788D01*
X2900D01*
Y1782D01*
X2894Y1775D01*
X2881D01*
X2874Y1782D01*
Y1795D01*
X2881Y1801D01*
X2907D01*
X2913Y1795D01*
Y1775D01*
X2927Y1749D02*
Y1742D01*
X2920Y1736D01*
X2887D01*
Y1755D01*
X2894Y1762D01*
X2907D01*
X2913Y1755D01*
Y1736D01*
Y1723D02*
X2887D01*
Y1716D01*
X2894Y1709D01*
X2913D01*
X2894D01*
X2887Y1703D01*
X2894Y1696D01*
X2913D01*
X2887Y1677D02*
Y1663D01*
X2894Y1657D01*
X2913D01*
Y1677D01*
X2907Y1683D01*
X2900Y1677D01*
Y1657D01*
X2913Y1644D02*
Y1631D01*
Y1637D01*
X2887D01*
Y1644D01*
X2913Y1611D02*
Y1598D01*
Y1604D01*
X2874D01*
Y1611D01*
X2913Y1578D02*
X2907D01*
Y1572D01*
X2913D01*
Y1578D01*
X2887Y1519D02*
Y1539D01*
X2894Y1545D01*
X2907D01*
X2913Y1539D01*
Y1519D01*
Y1499D02*
Y1486D01*
X2907Y1480D01*
X2894D01*
X2887Y1486D01*
Y1499D01*
X2894Y1506D01*
X2907D01*
X2913Y1499D01*
Y1467D02*
X2887D01*
Y1460D01*
X2894Y1454D01*
X2913D01*
X2894D01*
X2887Y1447D01*
X2894Y1440D01*
X2913D01*
Y1427D02*
X2894Y1408D01*
X2874Y1427D01*
X2913Y1329D02*
Y1355D01*
X2887Y1329D01*
X2881D01*
X2874Y1336D01*
Y1349D01*
X2881Y1355D01*
Y1316D02*
X2874Y1309D01*
Y1296D01*
X2881Y1290D01*
X2907D01*
X2913Y1296D01*
Y1309D01*
X2907Y1316D01*
X2881D01*
X2913Y1276D02*
Y1263D01*
Y1270D01*
X2874D01*
X2881Y1276D01*
X2874Y1217D02*
Y1244D01*
X2894D01*
X2887Y1231D01*
Y1224D01*
X2894Y1217D01*
X2907D01*
X2913Y1224D01*
Y1237D01*
X2907Y1244D01*
M02*
