%FSLAX23Y23*%
%MOIN*%
G70*
G01*
G75*
G04 Layer_Physical_Order=1*
G04 Layer_Color=255*
%ADD10R,0.047X0.098*%
%ADD11R,0.030X0.035*%
%ADD12C,0.006*%
%ADD13C,0.060*%
%ADD14C,0.061*%
%ADD15C,0.165*%
%ADD16C,0.024*%
G36*
X1665Y1609D02*
X1673Y1608D01*
X1676Y1608D01*
X1733Y1551D01*
Y1086D01*
X1726Y1083D01*
X1718Y1077D01*
X1711Y1069D01*
X1707Y1059D01*
X1706Y1048D01*
X1707Y1038D01*
X1711Y1028D01*
X1715Y1023D01*
X1713Y1018D01*
X1681D01*
X1678Y1023D01*
X1682Y1028D01*
X1686Y1038D01*
X1687Y1048D01*
X1686Y1059D01*
X1682Y1069D01*
X1675Y1077D01*
X1667Y1083D01*
X1660Y1086D01*
Y1607D01*
X1664Y1609D01*
X1665Y1609D01*
D02*
G37*
G36*
X1833Y1494D02*
Y1086D01*
X1826Y1083D01*
X1818Y1077D01*
X1811Y1069D01*
X1807Y1059D01*
X1806Y1048D01*
X1807Y1038D01*
X1811Y1028D01*
X1815Y1023D01*
X1813Y1018D01*
X1781D01*
X1778Y1023D01*
X1782Y1028D01*
X1786Y1038D01*
X1787Y1048D01*
X1786Y1059D01*
X1782Y1069D01*
X1775Y1077D01*
X1767Y1083D01*
X1760Y1086D01*
Y1556D01*
X1759Y1562D01*
X1759Y1562D01*
X1762Y1565D01*
X1833Y1494D01*
D02*
G37*
G36*
X1307Y2108D02*
X1308Y2108D01*
X1306Y2098D01*
X1308Y2087D01*
X1312Y2077D01*
X1318Y2069D01*
X1326Y2063D01*
X1336Y2059D01*
X1347Y2057D01*
X1357Y2059D01*
X1367Y2063D01*
X1375Y2069D01*
X1382Y2077D01*
X1384Y2084D01*
X1723D01*
X1798Y2009D01*
Y1736D01*
X1799Y1731D01*
X1802Y1727D01*
X1889Y1639D01*
X1894Y1636D01*
X1899Y1635D01*
X1922D01*
X1924Y1630D01*
X1918Y1626D01*
X1912Y1618D01*
X1908Y1608D01*
X1906Y1598D01*
X1908Y1587D01*
X1912Y1577D01*
X1918Y1569D01*
X1926Y1563D01*
X1933Y1560D01*
Y1086D01*
X1926Y1083D01*
X1918Y1077D01*
X1911Y1069D01*
X1907Y1059D01*
X1906Y1048D01*
X1907Y1038D01*
X1911Y1028D01*
X1915Y1023D01*
X1913Y1018D01*
X1881D01*
X1878Y1023D01*
X1882Y1028D01*
X1886Y1038D01*
X1887Y1048D01*
X1886Y1059D01*
X1882Y1069D01*
X1875Y1077D01*
X1867Y1083D01*
X1860Y1086D01*
Y1500D01*
X1859Y1505D01*
X1856Y1509D01*
X1769Y1597D01*
X1769Y1599D01*
X1768Y1608D01*
X1763Y1615D01*
X1755Y1620D01*
X1747Y1622D01*
X1738Y1620D01*
X1731Y1615D01*
X1726Y1608D01*
X1726Y1603D01*
X1720Y1602D01*
X1695Y1627D01*
X1695Y1630D01*
X1694Y1638D01*
X1689Y1646D01*
X1682Y1650D01*
X1673Y1652D01*
X1665Y1651D01*
X1664Y1650D01*
X1660Y1653D01*
Y1698D01*
X1659Y1703D01*
X1656Y1707D01*
X1383Y1980D01*
X1386Y1987D01*
X1387Y1998D01*
X1386Y2008D01*
X1382Y2018D01*
X1375Y2026D01*
X1367Y2033D01*
X1357Y2037D01*
X1347Y2038D01*
X1336Y2037D01*
X1326Y2033D01*
X1318Y2026D01*
X1312Y2018D01*
X1308Y2008D01*
X1306Y1998D01*
X1308Y1987D01*
X1312Y1977D01*
X1318Y1969D01*
X1326Y1963D01*
X1336Y1959D01*
X1347Y1957D01*
X1357Y1959D01*
X1364Y1962D01*
X1633Y1692D01*
Y1086D01*
X1626Y1083D01*
X1618Y1077D01*
X1611Y1069D01*
X1607Y1059D01*
X1606Y1048D01*
X1607Y1038D01*
X1611Y1028D01*
X1615Y1023D01*
X1613Y1018D01*
X1581D01*
X1578Y1023D01*
X1582Y1028D01*
X1586Y1038D01*
X1587Y1048D01*
X1586Y1059D01*
X1582Y1069D01*
X1575Y1077D01*
X1567Y1083D01*
X1560Y1086D01*
Y1698D01*
X1559Y1703D01*
X1556Y1707D01*
X1383Y1880D01*
X1386Y1887D01*
X1387Y1898D01*
X1386Y1908D01*
X1382Y1918D01*
X1375Y1926D01*
X1367Y1933D01*
X1357Y1937D01*
X1347Y1938D01*
X1336Y1937D01*
X1326Y1933D01*
X1318Y1926D01*
X1312Y1918D01*
X1308Y1908D01*
X1306Y1898D01*
X1308Y1887D01*
X1312Y1877D01*
X1318Y1869D01*
X1326Y1863D01*
X1336Y1859D01*
X1347Y1857D01*
X1357Y1859D01*
X1364Y1862D01*
X1533Y1692D01*
Y1649D01*
X1528Y1647D01*
X1523Y1650D01*
X1514Y1652D01*
X1511Y1652D01*
X1383Y1780D01*
X1386Y1787D01*
X1387Y1798D01*
X1386Y1808D01*
X1382Y1818D01*
X1375Y1826D01*
X1367Y1833D01*
X1357Y1837D01*
X1347Y1838D01*
X1336Y1837D01*
X1326Y1833D01*
X1318Y1826D01*
X1312Y1818D01*
X1308Y1808D01*
X1306Y1798D01*
X1308Y1787D01*
X1312Y1777D01*
X1318Y1769D01*
X1326Y1763D01*
X1336Y1759D01*
X1347Y1757D01*
X1357Y1759D01*
X1364Y1762D01*
X1493Y1633D01*
X1492Y1630D01*
X1494Y1621D01*
X1497Y1617D01*
X1497Y1615D01*
X1495Y1611D01*
X1384D01*
X1382Y1618D01*
X1375Y1626D01*
X1367Y1633D01*
X1357Y1637D01*
X1347Y1638D01*
X1336Y1637D01*
X1326Y1633D01*
X1318Y1626D01*
X1312Y1618D01*
X1308Y1608D01*
X1306Y1598D01*
X1308Y1587D01*
X1312Y1577D01*
X1318Y1569D01*
X1326Y1563D01*
X1336Y1559D01*
X1347Y1557D01*
X1357Y1559D01*
X1367Y1563D01*
X1375Y1569D01*
X1382Y1577D01*
X1384Y1584D01*
X1495D01*
X1498Y1580D01*
X1505Y1575D01*
X1514Y1573D01*
X1522Y1575D01*
X1528Y1579D01*
X1533Y1577D01*
Y1086D01*
X1526Y1083D01*
X1518Y1077D01*
X1511Y1069D01*
X1507Y1059D01*
X1506Y1048D01*
X1507Y1038D01*
X1511Y1028D01*
X1515Y1023D01*
X1513Y1018D01*
X1495D01*
X1483Y1031D01*
X1486Y1038D01*
X1487Y1048D01*
X1486Y1059D01*
X1482Y1069D01*
X1475Y1077D01*
X1467Y1083D01*
X1460Y1086D01*
Y1199D01*
X1460Y1199D01*
X1459Y1204D01*
X1456Y1208D01*
X1294Y1371D01*
Y1626D01*
X1329Y1662D01*
X1336Y1659D01*
X1347Y1657D01*
X1357Y1659D01*
X1367Y1663D01*
X1375Y1669D01*
X1382Y1677D01*
X1386Y1687D01*
X1387Y1698D01*
X1386Y1708D01*
X1382Y1718D01*
X1375Y1726D01*
X1367Y1733D01*
X1357Y1737D01*
X1347Y1738D01*
X1336Y1737D01*
X1326Y1733D01*
X1318Y1726D01*
X1312Y1718D01*
X1308Y1708D01*
X1306Y1698D01*
X1308Y1687D01*
X1311Y1680D01*
X1282Y1652D01*
X1278Y1654D01*
Y2085D01*
X1302Y2109D01*
X1307Y2108D01*
D02*
G37*
G36*
X2945Y992D02*
X2916D01*
Y1106D01*
X2896D01*
Y1480D01*
X2916D01*
Y1599D01*
X2849D01*
Y1553D01*
X2787D01*
Y1567D01*
X2738D01*
X2737Y1567D01*
X2735D01*
X2733D01*
X2732Y1567D01*
X2714D01*
Y1539D01*
Y1512D01*
X2732D01*
X2733Y1512D01*
X2735D01*
X2737D01*
X2738Y1512D01*
X2787D01*
Y1526D01*
X2849D01*
Y1480D01*
X2869D01*
Y1106D01*
X2849D01*
Y992D01*
X2616D01*
Y1106D01*
X2596D01*
Y1480D01*
X2616D01*
Y1599D01*
X2549D01*
Y1598D01*
X2544Y1596D01*
X2433Y1707D01*
X2429Y1710D01*
X2424Y1711D01*
X1984D01*
X1982Y1718D01*
X1975Y1726D01*
X1967Y1733D01*
X1957Y1737D01*
X1947Y1738D01*
X1936Y1737D01*
X1926Y1733D01*
X1918Y1726D01*
X1912Y1718D01*
X1908Y1708D01*
X1906Y1698D01*
X1908Y1687D01*
X1912Y1677D01*
X1918Y1669D01*
X1921Y1667D01*
X1919Y1662D01*
X1904D01*
X1824Y1742D01*
Y2015D01*
X1823Y2020D01*
X1820Y2024D01*
X1738Y2107D01*
X1733Y2110D01*
X1728Y2111D01*
X1384D01*
X1382Y2118D01*
X1375Y2126D01*
X1370Y2130D01*
X1371Y2135D01*
X1450D01*
X1455Y2136D01*
X1459Y2139D01*
X1523Y2203D01*
X1526Y2208D01*
X1527Y2213D01*
Y2843D01*
X1568Y2884D01*
X1909D01*
X1912Y2877D01*
X1918Y2869D01*
X1926Y2863D01*
X1936Y2859D01*
X1947Y2857D01*
X1957Y2859D01*
X1967Y2863D01*
X1975Y2869D01*
X1982Y2877D01*
X1986Y2887D01*
X1987Y2898D01*
X1986Y2908D01*
X1982Y2918D01*
X1975Y2926D01*
X1967Y2933D01*
X1957Y2937D01*
X1947Y2938D01*
X1936Y2937D01*
X1926Y2933D01*
X1918Y2926D01*
X1912Y2918D01*
X1909Y2911D01*
X1563D01*
X1558Y2910D01*
X1554Y2907D01*
X1504Y2858D01*
X1502Y2853D01*
X1501Y2848D01*
Y2218D01*
X1444Y2162D01*
X1374D01*
X1372Y2167D01*
X1375Y2169D01*
X1382Y2177D01*
X1386Y2187D01*
X1387Y2198D01*
X1386Y2208D01*
X1382Y2218D01*
X1375Y2226D01*
X1367Y2233D01*
X1357Y2237D01*
X1347Y2238D01*
X1336Y2237D01*
X1326Y2233D01*
X1318Y2226D01*
X1312Y2218D01*
X1308Y2208D01*
X1306Y2198D01*
X1308Y2187D01*
X1312Y2177D01*
X1318Y2169D01*
X1321Y2167D01*
X1320Y2161D01*
X1318Y2161D01*
X1313Y2158D01*
X1255Y2100D01*
X1252Y2095D01*
X1251Y2090D01*
Y1371D01*
X1137Y1257D01*
X1134Y1253D01*
X1133Y1248D01*
Y1086D01*
X1126Y1083D01*
X1118Y1077D01*
X1111Y1069D01*
X1107Y1059D01*
X1106Y1048D01*
X1107Y1038D01*
X1111Y1028D01*
X1118Y1019D01*
X1126Y1013D01*
X1136Y1009D01*
X1147Y1008D01*
X1157Y1009D01*
X1167Y1013D01*
X1175Y1019D01*
X1182Y1028D01*
X1186Y1038D01*
X1187Y1048D01*
X1186Y1059D01*
X1182Y1069D01*
X1175Y1077D01*
X1167Y1083D01*
X1160Y1086D01*
Y1243D01*
X1272Y1355D01*
X1433Y1194D01*
Y1086D01*
X1426Y1083D01*
X1418Y1077D01*
X1411Y1069D01*
X1407Y1059D01*
X1406Y1048D01*
X1407Y1038D01*
X1411Y1028D01*
X1418Y1019D01*
X1426Y1013D01*
X1436Y1009D01*
X1447Y1008D01*
X1457Y1009D01*
X1464Y1012D01*
X1479Y997D01*
X1477Y992D01*
X992D01*
Y2945D01*
X2563D01*
Y2828D01*
X2584D01*
Y2454D01*
X2563D01*
Y2380D01*
X2095Y1911D01*
X1984D01*
X1982Y1918D01*
X1975Y1926D01*
X1967Y1933D01*
X1957Y1937D01*
X1947Y1938D01*
X1936Y1937D01*
X1926Y1933D01*
X1918Y1926D01*
X1912Y1918D01*
X1908Y1908D01*
X1906Y1898D01*
X1908Y1887D01*
X1912Y1877D01*
X1918Y1869D01*
X1926Y1863D01*
X1936Y1859D01*
X1947Y1857D01*
X1957Y1859D01*
X1967Y1863D01*
X1975Y1869D01*
X1982Y1877D01*
X1984Y1884D01*
X2100D01*
X2105Y1885D01*
X2109Y1888D01*
X2559Y2338D01*
X2563Y2336D01*
Y2335D01*
X2631D01*
Y2454D01*
X2610D01*
Y2828D01*
X2631D01*
Y2945D01*
X2863D01*
Y2900D01*
X2798D01*
Y2915D01*
X2750D01*
X2749Y2915D01*
X2747D01*
X2745D01*
X2744Y2915D01*
X2725D01*
Y2887D01*
Y2859D01*
X2744D01*
X2745Y2859D01*
X2747D01*
X2749D01*
X2750Y2859D01*
X2798D01*
Y2874D01*
X2863D01*
Y2828D01*
X2884D01*
Y2454D01*
X2863D01*
Y2335D01*
X2931D01*
Y2454D01*
X2910D01*
Y2828D01*
X2931D01*
Y2945D01*
X2945D01*
Y992D01*
D02*
G37*
G36*
X2549Y1554D02*
Y1480D01*
X2569D01*
Y1106D01*
X2549D01*
Y992D01*
X2016D01*
X2014Y997D01*
X2029Y1012D01*
X2036Y1009D01*
X2047Y1008D01*
X2057Y1009D01*
X2067Y1013D01*
X2075Y1019D01*
X2082Y1028D01*
X2086Y1038D01*
X2087Y1048D01*
X2086Y1059D01*
X2082Y1069D01*
X2075Y1077D01*
X2067Y1083D01*
X2057Y1088D01*
X2047Y1089D01*
X2036Y1088D01*
X2026Y1083D01*
X2018Y1077D01*
X2011Y1069D01*
X2007Y1059D01*
X2006Y1048D01*
X2007Y1038D01*
X2010Y1031D01*
X1998Y1018D01*
X1981D01*
X1978Y1023D01*
X1982Y1028D01*
X1986Y1038D01*
X1987Y1048D01*
X1986Y1059D01*
X1982Y1069D01*
X1975Y1077D01*
X1967Y1083D01*
X1960Y1086D01*
Y1560D01*
X1967Y1563D01*
X1975Y1569D01*
X1982Y1577D01*
X1986Y1587D01*
X1987Y1598D01*
X1986Y1608D01*
X1982Y1618D01*
X1975Y1626D01*
X1970Y1630D01*
X1971Y1635D01*
X1989D01*
X2036Y1588D01*
Y1286D01*
X2037Y1281D01*
X2040Y1277D01*
X2133Y1183D01*
Y1086D01*
X2126Y1083D01*
X2118Y1077D01*
X2111Y1069D01*
X2107Y1059D01*
X2106Y1048D01*
X2107Y1038D01*
X2111Y1028D01*
X2118Y1019D01*
X2126Y1013D01*
X2136Y1009D01*
X2147Y1008D01*
X2157Y1009D01*
X2167Y1013D01*
X2175Y1019D01*
X2182Y1028D01*
X2186Y1038D01*
X2187Y1048D01*
X2186Y1059D01*
X2182Y1069D01*
X2175Y1077D01*
X2167Y1083D01*
X2160Y1086D01*
Y1189D01*
X2159Y1194D01*
X2156Y1198D01*
X2062Y1292D01*
Y1594D01*
X2061Y1599D01*
X2059Y1603D01*
X2003Y1658D01*
X1999Y1661D01*
X1994Y1662D01*
X1974D01*
X1972Y1667D01*
X1975Y1669D01*
X1982Y1677D01*
X1984Y1684D01*
X2419D01*
X2549Y1554D01*
D02*
G37*
%LPC*%
G36*
X2704Y1567D02*
X2684D01*
Y1544D01*
X2704D01*
Y1567D01*
D02*
G37*
G36*
X2619Y2229D02*
X2552D01*
Y2111D01*
X2572D01*
Y1737D01*
X2552D01*
Y1737D01*
X2547Y1735D01*
X2475Y1807D01*
X2471Y1810D01*
X2466Y1811D01*
X1984D01*
X1982Y1818D01*
X1975Y1826D01*
X1967Y1833D01*
X1957Y1837D01*
X1947Y1838D01*
X1936Y1837D01*
X1926Y1833D01*
X1918Y1826D01*
X1912Y1818D01*
X1908Y1808D01*
X1906Y1798D01*
X1908Y1787D01*
X1912Y1777D01*
X1918Y1769D01*
X1926Y1763D01*
X1936Y1759D01*
X1947Y1757D01*
X1957Y1759D01*
X1967Y1763D01*
X1975Y1769D01*
X1982Y1777D01*
X1984Y1784D01*
X2460D01*
X2552Y1693D01*
Y1619D01*
X2619D01*
Y1737D01*
X2598D01*
Y2111D01*
X2619D01*
Y2229D01*
D02*
G37*
G36*
X2704Y1534D02*
X2684D01*
Y1512D01*
X2704D01*
Y1534D01*
D02*
G37*
G36*
X2170Y1510D02*
Y1422D01*
X2258D01*
X2257Y1435D01*
X2251Y1453D01*
X2243Y1469D01*
X2231Y1483D01*
X2217Y1495D01*
X2201Y1503D01*
X2184Y1509D01*
X2170Y1510D01*
D02*
G37*
G36*
X2160D02*
X2147Y1509D01*
X2130Y1503D01*
X2114Y1495D01*
X2100Y1483D01*
X2088Y1469D01*
X2079Y1453D01*
X2074Y1435D01*
X2073Y1422D01*
X2160D01*
Y1510D01*
D02*
G37*
G36*
X1947Y2038D02*
X1936Y2037D01*
X1926Y2033D01*
X1918Y2026D01*
X1912Y2018D01*
X1908Y2008D01*
X1906Y1998D01*
X1908Y1987D01*
X1912Y1977D01*
X1918Y1969D01*
X1926Y1963D01*
X1936Y1959D01*
X1947Y1957D01*
X1957Y1959D01*
X1967Y1963D01*
X1975Y1969D01*
X1982Y1977D01*
X1986Y1987D01*
X1987Y1998D01*
X1986Y2008D01*
X1982Y2018D01*
X1975Y2026D01*
X1967Y2033D01*
X1957Y2037D01*
X1947Y2038D01*
D02*
G37*
G36*
Y2238D02*
X1936Y2237D01*
X1926Y2233D01*
X1918Y2226D01*
X1912Y2218D01*
X1908Y2208D01*
X1906Y2198D01*
X1908Y2187D01*
X1912Y2177D01*
X1918Y2169D01*
X1926Y2163D01*
X1936Y2159D01*
X1947Y2157D01*
X1957Y2159D01*
X1967Y2163D01*
X1975Y2169D01*
X1982Y2177D01*
X1986Y2187D01*
X1987Y2198D01*
X1986Y2208D01*
X1982Y2218D01*
X1975Y2226D01*
X1967Y2233D01*
X1957Y2237D01*
X1947Y2238D01*
D02*
G37*
G36*
X2704Y2198D02*
X2684D01*
Y2175D01*
X2704D01*
Y2198D01*
D02*
G37*
G36*
X2919Y2229D02*
X2852D01*
Y2184D01*
X2787D01*
Y2198D01*
X2738D01*
X2737Y2198D01*
X2735D01*
X2733D01*
X2732Y2198D01*
X2714D01*
Y2170D01*
Y2143D01*
X2732D01*
X2733Y2143D01*
X2735D01*
X2737D01*
X2738Y2143D01*
X2787D01*
Y2157D01*
X2852D01*
Y2111D01*
X2872D01*
Y1737D01*
X2852D01*
Y1619D01*
X2919D01*
Y1737D01*
X2898D01*
Y2111D01*
X2919D01*
Y2229D01*
D02*
G37*
G36*
X1947Y2138D02*
X1936Y2137D01*
X1926Y2133D01*
X1918Y2126D01*
X1912Y2118D01*
X1908Y2108D01*
X1906Y2098D01*
X1908Y2087D01*
X1912Y2077D01*
X1918Y2069D01*
X1926Y2063D01*
X1936Y2059D01*
X1947Y2057D01*
X1957Y2059D01*
X1967Y2063D01*
X1975Y2069D01*
X1982Y2077D01*
X1986Y2087D01*
X1987Y2098D01*
X1986Y2108D01*
X1982Y2118D01*
X1975Y2126D01*
X1967Y2133D01*
X1957Y2137D01*
X1947Y2138D01*
D02*
G37*
G36*
X2704Y2165D02*
X2684D01*
Y2143D01*
X2704D01*
Y2165D01*
D02*
G37*
G36*
X1242Y1088D02*
X1236Y1088D01*
X1226Y1083D01*
X1218Y1077D01*
X1211Y1069D01*
X1207Y1059D01*
X1207Y1053D01*
X1242D01*
Y1088D01*
D02*
G37*
G36*
X1252D02*
Y1053D01*
X1287D01*
X1286Y1059D01*
X1282Y1069D01*
X1275Y1077D01*
X1267Y1083D01*
X1257Y1088D01*
X1252Y1088D01*
D02*
G37*
G36*
X1287Y1043D02*
X1252D01*
Y1008D01*
X1257Y1009D01*
X1267Y1013D01*
X1275Y1019D01*
X1282Y1028D01*
X1286Y1038D01*
X1287Y1043D01*
D02*
G37*
G36*
X1347Y1089D02*
X1336Y1088D01*
X1326Y1083D01*
X1318Y1077D01*
X1311Y1069D01*
X1307Y1059D01*
X1306Y1048D01*
X1307Y1038D01*
X1311Y1028D01*
X1318Y1019D01*
X1326Y1013D01*
X1336Y1009D01*
X1347Y1008D01*
X1357Y1009D01*
X1367Y1013D01*
X1375Y1019D01*
X1382Y1028D01*
X1386Y1038D01*
X1387Y1048D01*
X1386Y1059D01*
X1382Y1069D01*
X1375Y1077D01*
X1367Y1083D01*
X1357Y1088D01*
X1347Y1089D01*
D02*
G37*
G36*
X1242Y1043D02*
X1207D01*
X1207Y1038D01*
X1211Y1028D01*
X1218Y1019D01*
X1226Y1013D01*
X1236Y1009D01*
X1242Y1008D01*
Y1043D01*
D02*
G37*
G36*
X1097Y1412D02*
X1010D01*
X1011Y1399D01*
X1016Y1382D01*
X1025Y1366D01*
X1037Y1351D01*
X1051Y1340D01*
X1067Y1331D01*
X1084Y1326D01*
X1097Y1325D01*
Y1412D01*
D02*
G37*
G36*
Y1510D02*
X1084Y1509D01*
X1067Y1503D01*
X1051Y1495D01*
X1037Y1483D01*
X1025Y1469D01*
X1016Y1453D01*
X1011Y1435D01*
X1010Y1422D01*
X1097D01*
Y1510D01*
D02*
G37*
G36*
X1107D02*
Y1422D01*
X1195D01*
X1194Y1435D01*
X1188Y1453D01*
X1180Y1469D01*
X1168Y1483D01*
X1154Y1495D01*
X1138Y1503D01*
X1121Y1509D01*
X1107Y1510D01*
D02*
G37*
G36*
X2258Y1412D02*
X2170D01*
Y1325D01*
X2184Y1326D01*
X2201Y1331D01*
X2217Y1340D01*
X2231Y1351D01*
X2243Y1366D01*
X2251Y1382D01*
X2257Y1399D01*
X2258Y1412D01*
D02*
G37*
G36*
X1195D02*
X1107D01*
Y1325D01*
X1121Y1326D01*
X1138Y1331D01*
X1154Y1340D01*
X1168Y1351D01*
X1180Y1366D01*
X1188Y1382D01*
X1194Y1399D01*
X1195Y1412D01*
D02*
G37*
G36*
X2160D02*
X2073D01*
X2074Y1399D01*
X2079Y1382D01*
X2088Y1366D01*
X2100Y1351D01*
X2114Y1340D01*
X2130Y1331D01*
X2147Y1326D01*
X2160Y1325D01*
Y1412D01*
D02*
G37*
G36*
X1097Y2927D02*
X1084Y2926D01*
X1067Y2921D01*
X1051Y2912D01*
X1037Y2900D01*
X1025Y2886D01*
X1016Y2870D01*
X1011Y2853D01*
X1010Y2840D01*
X1097D01*
Y2927D01*
D02*
G37*
G36*
X1107D02*
Y2840D01*
X1195D01*
X1194Y2853D01*
X1188Y2870D01*
X1180Y2886D01*
X1168Y2900D01*
X1154Y2912D01*
X1138Y2921D01*
X1121Y2926D01*
X1107Y2927D01*
D02*
G37*
G36*
X2160D02*
X2147Y2926D01*
X2130Y2921D01*
X2114Y2912D01*
X2100Y2900D01*
X2088Y2886D01*
X2079Y2870D01*
X2074Y2853D01*
X2073Y2840D01*
X2160D01*
Y2927D01*
D02*
G37*
G36*
X2258Y2830D02*
X2170D01*
Y2742D01*
X2184Y2743D01*
X2201Y2749D01*
X2217Y2757D01*
X2231Y2769D01*
X2243Y2783D01*
X2251Y2799D01*
X2257Y2816D01*
X2258Y2830D01*
D02*
G37*
G36*
X1347Y2838D02*
X1336Y2837D01*
X1326Y2833D01*
X1318Y2826D01*
X1312Y2818D01*
X1308Y2808D01*
X1306Y2798D01*
X1308Y2787D01*
X1312Y2777D01*
X1318Y2769D01*
X1326Y2763D01*
X1336Y2759D01*
X1347Y2757D01*
X1357Y2759D01*
X1367Y2763D01*
X1375Y2769D01*
X1382Y2777D01*
X1386Y2787D01*
X1387Y2798D01*
X1386Y2808D01*
X1382Y2818D01*
X1375Y2826D01*
X1367Y2833D01*
X1357Y2837D01*
X1347Y2838D01*
D02*
G37*
G36*
X1947D02*
X1936Y2837D01*
X1926Y2833D01*
X1918Y2826D01*
X1912Y2818D01*
X1908Y2808D01*
X1906Y2798D01*
X1908Y2787D01*
X1912Y2777D01*
X1918Y2769D01*
X1926Y2763D01*
X1936Y2759D01*
X1947Y2757D01*
X1957Y2759D01*
X1967Y2763D01*
X1975Y2769D01*
X1982Y2777D01*
X1986Y2787D01*
X1987Y2798D01*
X1986Y2808D01*
X1982Y2818D01*
X1975Y2826D01*
X1967Y2833D01*
X1957Y2837D01*
X1947Y2838D01*
D02*
G37*
G36*
X2170Y2927D02*
Y2840D01*
X2258D01*
X2257Y2853D01*
X2251Y2870D01*
X2243Y2886D01*
X2231Y2900D01*
X2217Y2912D01*
X2201Y2921D01*
X2184Y2926D01*
X2170Y2927D01*
D02*
G37*
G36*
X2715Y2915D02*
X2696D01*
Y2892D01*
X2715D01*
Y2915D01*
D02*
G37*
G36*
X1342Y2937D02*
X1336Y2937D01*
X1326Y2933D01*
X1318Y2926D01*
X1312Y2918D01*
X1308Y2908D01*
X1307Y2903D01*
X1342D01*
Y2937D01*
D02*
G37*
G36*
X1352D02*
Y2903D01*
X1386D01*
X1386Y2908D01*
X1382Y2918D01*
X1375Y2926D01*
X1367Y2933D01*
X1357Y2937D01*
X1352Y2937D01*
D02*
G37*
G36*
X1342Y2893D02*
X1307D01*
X1308Y2887D01*
X1312Y2877D01*
X1318Y2869D01*
X1326Y2863D01*
X1336Y2859D01*
X1342Y2858D01*
Y2893D01*
D02*
G37*
G36*
X1386D02*
X1352D01*
Y2858D01*
X1357Y2859D01*
X1367Y2863D01*
X1375Y2869D01*
X1382Y2877D01*
X1386Y2887D01*
X1386Y2893D01*
D02*
G37*
G36*
X2715Y2882D02*
X2696D01*
Y2859D01*
X2715D01*
Y2882D01*
D02*
G37*
G36*
X1947Y2438D02*
X1936Y2437D01*
X1926Y2433D01*
X1918Y2426D01*
X1912Y2418D01*
X1908Y2408D01*
X1906Y2398D01*
X1908Y2387D01*
X1912Y2377D01*
X1918Y2369D01*
X1926Y2363D01*
X1936Y2359D01*
X1947Y2357D01*
X1957Y2359D01*
X1967Y2363D01*
X1975Y2369D01*
X1982Y2377D01*
X1986Y2387D01*
X1987Y2398D01*
X1986Y2408D01*
X1982Y2418D01*
X1975Y2426D01*
X1967Y2433D01*
X1957Y2437D01*
X1947Y2438D01*
D02*
G37*
G36*
X1347Y2538D02*
X1336Y2537D01*
X1326Y2533D01*
X1318Y2526D01*
X1312Y2518D01*
X1308Y2508D01*
X1306Y2498D01*
X1308Y2487D01*
X1312Y2477D01*
X1318Y2469D01*
X1326Y2463D01*
X1336Y2459D01*
X1347Y2457D01*
X1357Y2459D01*
X1367Y2463D01*
X1375Y2469D01*
X1382Y2477D01*
X1386Y2487D01*
X1387Y2498D01*
X1386Y2508D01*
X1382Y2518D01*
X1375Y2526D01*
X1367Y2533D01*
X1357Y2537D01*
X1347Y2538D01*
D02*
G37*
G36*
X1947D02*
X1936Y2537D01*
X1926Y2533D01*
X1918Y2526D01*
X1912Y2518D01*
X1908Y2508D01*
X1906Y2498D01*
X1908Y2487D01*
X1912Y2477D01*
X1918Y2469D01*
X1926Y2463D01*
X1936Y2459D01*
X1947Y2457D01*
X1957Y2459D01*
X1967Y2463D01*
X1975Y2469D01*
X1982Y2477D01*
X1986Y2487D01*
X1987Y2498D01*
X1986Y2508D01*
X1982Y2518D01*
X1975Y2526D01*
X1967Y2533D01*
X1957Y2537D01*
X1947Y2538D01*
D02*
G37*
G36*
X1347Y2338D02*
X1336Y2337D01*
X1326Y2333D01*
X1318Y2326D01*
X1312Y2318D01*
X1308Y2308D01*
X1306Y2298D01*
X1308Y2287D01*
X1312Y2277D01*
X1318Y2269D01*
X1326Y2263D01*
X1336Y2259D01*
X1347Y2257D01*
X1357Y2259D01*
X1367Y2263D01*
X1375Y2269D01*
X1382Y2277D01*
X1386Y2287D01*
X1387Y2298D01*
X1386Y2308D01*
X1382Y2318D01*
X1375Y2326D01*
X1367Y2333D01*
X1357Y2337D01*
X1347Y2338D01*
D02*
G37*
G36*
X1947D02*
X1936Y2337D01*
X1926Y2333D01*
X1918Y2326D01*
X1912Y2318D01*
X1908Y2308D01*
X1906Y2298D01*
X1908Y2287D01*
X1912Y2277D01*
X1918Y2269D01*
X1926Y2263D01*
X1936Y2259D01*
X1947Y2257D01*
X1957Y2259D01*
X1967Y2263D01*
X1975Y2269D01*
X1982Y2277D01*
X1986Y2287D01*
X1987Y2298D01*
X1986Y2308D01*
X1982Y2318D01*
X1975Y2326D01*
X1967Y2333D01*
X1957Y2337D01*
X1947Y2338D01*
D02*
G37*
G36*
X1347Y2438D02*
X1336Y2437D01*
X1326Y2433D01*
X1318Y2426D01*
X1312Y2418D01*
X1308Y2408D01*
X1306Y2398D01*
X1308Y2387D01*
X1312Y2377D01*
X1318Y2369D01*
X1326Y2363D01*
X1336Y2359D01*
X1347Y2357D01*
X1357Y2359D01*
X1367Y2363D01*
X1375Y2369D01*
X1382Y2377D01*
X1386Y2387D01*
X1387Y2398D01*
X1386Y2408D01*
X1382Y2418D01*
X1375Y2426D01*
X1367Y2433D01*
X1357Y2437D01*
X1347Y2438D01*
D02*
G37*
G36*
Y2638D02*
X1336Y2637D01*
X1326Y2633D01*
X1318Y2626D01*
X1312Y2618D01*
X1308Y2608D01*
X1306Y2598D01*
X1308Y2587D01*
X1312Y2577D01*
X1318Y2569D01*
X1326Y2563D01*
X1336Y2559D01*
X1347Y2557D01*
X1357Y2559D01*
X1367Y2563D01*
X1375Y2569D01*
X1382Y2577D01*
X1386Y2587D01*
X1387Y2598D01*
X1386Y2608D01*
X1382Y2618D01*
X1375Y2626D01*
X1367Y2633D01*
X1357Y2637D01*
X1347Y2638D01*
D02*
G37*
G36*
X1097Y2830D02*
X1010D01*
X1011Y2816D01*
X1016Y2799D01*
X1025Y2783D01*
X1037Y2769D01*
X1051Y2757D01*
X1067Y2749D01*
X1084Y2743D01*
X1097Y2742D01*
Y2830D01*
D02*
G37*
G36*
X1195D02*
X1107D01*
Y2742D01*
X1121Y2743D01*
X1138Y2749D01*
X1154Y2757D01*
X1168Y2769D01*
X1180Y2783D01*
X1188Y2799D01*
X1194Y2816D01*
X1195Y2830D01*
D02*
G37*
G36*
X2160D02*
X2073D01*
X2074Y2816D01*
X2079Y2799D01*
X2088Y2783D01*
X2100Y2769D01*
X2114Y2757D01*
X2130Y2749D01*
X2147Y2743D01*
X2160Y2742D01*
Y2830D01*
D02*
G37*
G36*
X1947Y2638D02*
X1936Y2637D01*
X1926Y2633D01*
X1918Y2626D01*
X1912Y2618D01*
X1908Y2608D01*
X1906Y2598D01*
X1908Y2587D01*
X1912Y2577D01*
X1918Y2569D01*
X1926Y2563D01*
X1936Y2559D01*
X1947Y2557D01*
X1957Y2559D01*
X1967Y2563D01*
X1975Y2569D01*
X1982Y2577D01*
X1986Y2587D01*
X1987Y2598D01*
X1986Y2608D01*
X1982Y2618D01*
X1975Y2626D01*
X1967Y2633D01*
X1957Y2637D01*
X1947Y2638D01*
D02*
G37*
G36*
X1347Y2738D02*
X1336Y2737D01*
X1326Y2733D01*
X1318Y2726D01*
X1312Y2718D01*
X1308Y2708D01*
X1306Y2698D01*
X1308Y2687D01*
X1312Y2677D01*
X1318Y2669D01*
X1326Y2663D01*
X1336Y2659D01*
X1347Y2657D01*
X1357Y2659D01*
X1367Y2663D01*
X1375Y2669D01*
X1382Y2677D01*
X1386Y2687D01*
X1387Y2698D01*
X1386Y2708D01*
X1382Y2718D01*
X1375Y2726D01*
X1367Y2733D01*
X1357Y2737D01*
X1347Y2738D01*
D02*
G37*
G36*
X1947D02*
X1936Y2737D01*
X1926Y2733D01*
X1918Y2726D01*
X1912Y2718D01*
X1908Y2708D01*
X1906Y2698D01*
X1908Y2687D01*
X1912Y2677D01*
X1918Y2669D01*
X1926Y2663D01*
X1936Y2659D01*
X1947Y2657D01*
X1957Y2659D01*
X1967Y2663D01*
X1975Y2669D01*
X1982Y2677D01*
X1986Y2687D01*
X1987Y2698D01*
X1986Y2708D01*
X1982Y2718D01*
X1975Y2726D01*
X1967Y2733D01*
X1957Y2737D01*
X1947Y2738D01*
D02*
G37*
%LPD*%
D10*
X2582Y1047D02*
D03*
X2882Y1539D02*
D03*
X2582D02*
D03*
X2882Y1047D02*
D03*
X2585Y1678D02*
D03*
X2885Y2170D02*
D03*
X2585D02*
D03*
X2885Y1678D02*
D03*
X2597Y2395D02*
D03*
X2897Y2887D02*
D03*
X2597D02*
D03*
X2897Y2395D02*
D03*
D11*
X2762Y1539D02*
D03*
X2709D02*
D03*
X2762Y2170D02*
D03*
X2709D02*
D03*
X2774Y2887D02*
D03*
X2720D02*
D03*
D12*
X2774Y2887D02*
X2897D01*
X2897Y2395D02*
Y2887D01*
X2597Y2395D02*
Y2887D01*
X2100Y1898D02*
X2597Y2395D01*
X1947Y1898D02*
X2100D01*
X2762Y2170D02*
X2885D01*
Y1678D02*
Y2170D01*
X2585Y1678D02*
Y2170D01*
X2466Y1798D02*
X2585Y1678D01*
X1947Y1798D02*
X2466D01*
X2762Y1539D02*
X2882D01*
Y1047D02*
Y1539D01*
X2582Y1047D02*
Y1539D01*
X2424Y1698D02*
X2582Y1539D01*
X1947Y1698D02*
X2424D01*
X1347Y2098D02*
X1728D01*
X1811Y2015D01*
Y1736D02*
Y2015D01*
Y1736D02*
X1899Y1649D01*
X1994D01*
X2049Y1594D01*
Y1286D02*
Y1594D01*
X1281Y1631D02*
X1347Y1698D01*
X1281Y1365D02*
Y1631D01*
Y1365D02*
X1447Y1199D01*
Y1048D02*
Y1199D01*
X2049Y1286D02*
X2147Y1189D01*
Y1048D02*
Y1189D01*
X1347Y1998D02*
X1647Y1698D01*
X1347Y1898D02*
X1547Y1698D01*
Y1048D02*
Y1698D01*
X1347Y1798D02*
X1514Y1630D01*
X1647Y1048D02*
Y1698D01*
X1747Y1048D02*
Y1556D01*
X1347Y1598D02*
X1514D01*
X1514Y1597D01*
Y1596D02*
Y1597D01*
X1673Y1630D02*
X1747Y1556D01*
X1747Y1599D02*
X1847Y1500D01*
Y1048D02*
Y1500D01*
X1947Y1048D02*
Y1598D01*
X1563Y2898D02*
X1947D01*
X1514Y2848D02*
X1563Y2898D01*
X1514Y2213D02*
Y2848D01*
X1450Y2149D02*
X1514Y2213D01*
X1323Y2149D02*
X1450D01*
X1265Y2090D02*
X1323Y2149D01*
X1265Y1366D02*
Y2090D01*
X1147Y1248D02*
X1265Y1366D01*
X1147Y1048D02*
Y1248D01*
X2003Y1005D02*
X2047Y1048D01*
X1490Y1005D02*
X2003D01*
X1447Y1048D02*
X1490Y1005D01*
D13*
X1947Y2898D02*
D03*
Y2798D02*
D03*
Y2698D02*
D03*
Y2598D02*
D03*
Y2498D02*
D03*
Y2398D02*
D03*
Y2298D02*
D03*
Y2198D02*
D03*
Y2098D02*
D03*
Y1998D02*
D03*
Y1898D02*
D03*
Y1798D02*
D03*
Y1698D02*
D03*
Y1598D02*
D03*
X1347Y2898D02*
D03*
Y1598D02*
D03*
Y1698D02*
D03*
Y1798D02*
D03*
Y1898D02*
D03*
Y1998D02*
D03*
Y2098D02*
D03*
Y2198D02*
D03*
Y2298D02*
D03*
Y2398D02*
D03*
Y2498D02*
D03*
Y2598D02*
D03*
Y2698D02*
D03*
Y2798D02*
D03*
D14*
X1147Y1048D02*
D03*
X1247D02*
D03*
X1347D02*
D03*
X1447D02*
D03*
X1547D02*
D03*
X1647D02*
D03*
X1747D02*
D03*
X1847D02*
D03*
X1947D02*
D03*
X2047D02*
D03*
X2147D02*
D03*
D15*
X1102Y2835D02*
D03*
X2165D02*
D03*
X1102Y1417D02*
D03*
X2165D02*
D03*
D16*
X1514Y1630D02*
D03*
X1673D02*
D03*
X1514Y1596D02*
D03*
X1747Y1599D02*
D03*
M02*
